<?xml version="1.0" encoding="UTF-8"?>
<svg xmlns="http://www.w3.org/2000/svg" xmlns:xlink="http://www.w3.org/1999/xlink" viewBox="0 0 335.38 456">
  <defs>
    <style>
      .cls-1 {
        fill: #e94e34;
      }

      .cls-2 {
        fill: #bdd24b;
      }

      .cls-3 {
        fill: #5a4832;
      }

      .cls-4 {
        fill: url(#Dégradé_sans_nom_44);
      }
    </style>
    <linearGradient id="Dégradé_sans_nom_44" data-name="Dégradé sans nom 44" x1="167.42" y1="456" x2="167.42" y2="166.89" gradientUnits="userSpaceOnUse">
      <stop offset="0" stop-color="#5aac31"/>
      <stop offset=".34" stop-color="#6eb333"/>
      <stop offset="1" stop-color="#a1c638"/>
    </linearGradient>
  </defs>
  <g id="Verre">
    <polyline id="Sommet" class="cls-2" points="29.07 126.08 31.89 166.89 303.36 166.89 305.77 126.08 29.07 126.08"/>
    <polygon class="cls-4" points="70.56 456 265.9 456 286.84 166.89 48 166.89 70.56 456"/>
  </g>
  <g id="Paille">
    <polygon class="cls-1" points="248.21 0 294.58 17.69 256.13 113.97 199.58 113.97 248.21 0"/>
  </g>
  <g id="Couvercle">
    <rect class="cls-3" x="5.86" y="113.97" width="323.47" height="12.11"/>
    <circle class="cls-3" cx="6.06" cy="120.03" r="6.06"/>
    <circle class="cls-3" cx="329.33" cy="120.03" r="6.06"/>
  </g>
  <g id="boules">
    <circle class="cls-3" cx="144.92" cy="282.96" r="20.03"/>
    <circle class="cls-3" cx="105.48" cy="334.33" r="17.1"/>
    <circle class="cls-3" cx="223.98" cy="349.78" r="21.68"/>
    <circle class="cls-3" cx="164.95" cy="349.78" r="20.03"/>
    <circle class="cls-3" cx="120.22" cy="391.92" r="15.88"/>
    <circle class="cls-3" cx="228.63" cy="290.63" r="13.56"/>
    <circle class="cls-3" cx="164.95" cy="413.89" r="17.33"/>
  </g>
</svg>